<?xml version="1.0" encoding="utf-8"?>
<!-- Generator: Adobe Illustrator 19.2.1, SVG Export Plug-In . SVG Version: 6.00 Build 0)  -->
<svg version="1.1" id="Capa_1" xmlns="http://www.w3.org/2000/svg" xmlns:xlink="http://www.w3.org/1999/xlink" x="0px" y="0px"
	 viewBox="0 0 512 338" style="enable-background:new 0 0 512 338;" xml:space="preserve">
<style type="text/css">
	.st0{fill:#FFFFFF;}
</style>
<g>
	<g>
		<path class="st0" d="M512,241.4c0-7.6-4.5-14-10.9-17.2V105.8c1.5-0.5,2.4-1.9,2.3-3.4c0-1.5-1-2.9-2.4-3.4L256.6,12.7
			c-3.1-1.1-6.5-1.1-9.7,0L2.4,99C1,99.5,0,100.8,0,102.3s0.9,2.9,2.3,3.4l244.1,95c3.4,1.3,7.2,1.3,10.6,0l227.3-88.5v112
			c-6.4,3.1-10.9,9.6-10.9,17.2c0,7.9,4.8,14.8,11.7,17.8c-6.9,13.6-11.7,41.7-11.7,49.7c0,10.7,8.7,19.3,19.3,19.3
			c10.6,0,19.3-8.6,19.3-19.3c0-8-4.9-36-11.7-49.7C507.1,256.3,512,249.4,512,241.4z"/>
		<path class="st0" d="M78.8,153.6c0,27.3,0,59.5,0,64.6c0,50.9,76.6,92.3,172.9,94.9c96.3-2.6,172.9-44,172.9-94.9
			c0-5.1,0-37.3,0-64.6L257,218.9c-3.4,1.3-7.2,1.3-10.6,0L78.8,153.6z"/>
	</g>
</g>
</svg>
